<svg width="48" height="48" viewBox="0 0 48 48" fill="none" xmlns="http://www.w3.org/2000/svg">
<rect width="48" height="48" rx="24" fill="#E6E6E6"/>
<g clip-path="url(#clip0_204_128)">
<path d="M31.5 19H29C29 17.6739 28.4732 16.4021 27.5355 15.4645C26.5979 14.5268 25.3261 14 24 14C22.6739 14 21.4021 14.5268 20.4645 15.4645C19.5268 16.4021 19 17.6739 19 19H16.5C15.837 19 15.2011 19.2634 14.7322 19.7322C14.2634 20.2011 14 20.837 14 21.5V29.8333C14.0013 30.938 14.4407 31.997 15.2218 32.7782C16.003 33.5593 17.062 33.9987 18.1667 34H29.8333C30.938 33.9987 31.997 33.5593 32.7782 32.7782C33.5593 31.997 33.9987 30.938 34 29.8333V21.5C34 20.837 33.7366 20.2011 33.2678 19.7322C32.7989 19.2634 32.163 19 31.5 19ZM24 15.6667C24.8841 15.6667 25.7319 16.0179 26.357 16.643C26.9821 17.2681 27.3333 18.1159 27.3333 19H20.6667C20.6667 18.1159 21.0179 17.2681 21.643 16.643C22.2681 16.0179 23.1159 15.6667 24 15.6667ZM32.3333 29.8333C32.3333 30.4964 32.0699 31.1323 31.6011 31.6011C31.1323 32.0699 30.4964 32.3333 29.8333 32.3333H18.1667C17.5036 32.3333 16.8677 32.0699 16.3989 31.6011C15.9301 31.1323 15.6667 30.4964 15.6667 29.8333V21.5C15.6667 21.279 15.7545 21.067 15.9107 20.9107C16.067 20.7545 16.279 20.6667 16.5 20.6667H19V22.3333C19 22.5543 19.0878 22.7663 19.2441 22.9226C19.4004 23.0789 19.6123 23.1667 19.8333 23.1667C20.0543 23.1667 20.2663 23.0789 20.4226 22.9226C20.5789 22.7663 20.6667 22.5543 20.6667 22.3333V20.6667H27.3333V22.3333C27.3333 22.5543 27.4211 22.7663 27.5774 22.9226C27.7337 23.0789 27.9457 23.1667 28.1667 23.1667C28.3877 23.1667 28.5996 23.0789 28.7559 22.9226C28.9122 22.7663 29 22.5543 29 22.3333V20.6667H31.5C31.721 20.6667 31.933 20.7545 32.0893 20.9107C32.2455 21.067 32.3333 21.279 32.3333 21.5V29.8333Z" fill="#333333"/>
</g>
<defs>
<clipPath id="clip0_204_128">
<rect width="20" height="20" fill="white" transform="translate(14 14)"/>
</clipPath>
</defs>
</svg>
