<svg width="64" height="64" viewBox="0 0 64 64" fill="none" xmlns="http://www.w3.org/2000/svg">
<g clip-path="url(#clip0_206_214)">
<path d="M31.8615 64.0239L30.9175 63.6053C29.8668 63.1439 5.3335 52.0639 5.3335 31.9999V14.6026C5.33443 12.9284 5.86359 11.2971 6.8456 9.94119C7.82762 8.58523 9.21243 7.57368 10.8028 7.05059L32.0002 0.0239258L53.1975 7.05059C54.7879 7.57368 56.1727 8.58523 57.1547 9.94119C58.1367 11.2971 58.6659 12.9284 58.6668 14.6026V31.9999C58.6668 54.8719 33.8988 63.3466 32.8428 63.6986L31.8615 64.0239ZM32.0002 5.61593L12.4908 12.0853C11.96 12.2586 11.4977 12.5955 11.17 13.0477C10.8424 13.4999 10.6663 14.0442 10.6668 14.6026V31.9999C10.6668 46.6506 27.8402 56.1546 32.1255 58.2959C36.4028 56.5759 53.3335 48.7013 53.3335 31.9999V14.6026C53.3341 14.0442 53.1579 13.4999 52.8303 13.0477C52.5026 12.5955 52.0403 12.2586 51.5095 12.0853L32.0002 5.61593Z" fill="#22A7C1"/>
<path d="M29.6297 38.7787H29.5417C28.8667 38.7683 28.2009 38.6212 27.5844 38.3462C26.9679 38.0712 26.4136 37.674 25.955 37.1787L19.8057 30.7787L23.6483 27.0933L29.6323 33.3333L43.4483 19.5173L47.219 23.288L33.1897 37.3173C32.7224 37.7842 32.1671 38.1538 31.5561 38.4046C30.945 38.6555 30.2902 38.7826 29.6297 38.7787Z" fill="#22A7C1"/>
</g>
<defs>
<clipPath id="clip0_206_214">
<rect width="64" height="64" fill="white"/>
</clipPath>
</defs>
</svg>
