<svg width="49" height="48" viewBox="0 0 49 48" fill="none" xmlns="http://www.w3.org/2000/svg">
<g clip-path="url(#clip0_206_223)">
<path d="M24.5 4.324C30.908 4.324 31.668 4.348 34.198 4.464C36.814 4.584 39.508 5.18 41.414 7.086C43.338 9.01 43.916 11.678 44.036 14.302C44.152 16.832 44.176 17.592 44.176 24C44.176 30.408 44.152 31.168 44.036 33.698C43.918 36.3 43.308 39.02 41.414 40.914C39.49 42.838 36.824 43.416 34.198 43.536C31.668 43.652 30.908 43.676 24.5 43.676C18.092 43.676 17.332 43.652 14.802 43.536C12.22 43.418 9.464 42.794 7.586 40.914C5.672 39 5.084 36.306 4.964 33.698C4.848 31.168 4.824 30.408 4.824 24C4.824 17.592 4.848 16.832 4.964 14.302C5.082 11.71 5.698 8.974 7.586 7.086C9.506 5.166 12.184 4.584 14.802 4.464C17.332 4.348 18.092 4.324 24.5 4.324ZM24.5 0C17.982 0 17.164 0.028 14.604 0.144C10.894 0.314 7.21 1.346 4.528 4.028C1.836 6.72 0.814 10.396 0.644 14.104C0.528 16.664 0.5 17.482 0.5 24C0.5 30.518 0.528 31.336 0.644 33.896C0.814 37.602 1.85 41.296 4.528 43.972C7.218 46.662 10.9 47.686 14.604 47.856C17.164 47.972 17.982 48 24.5 48C31.018 48 31.836 47.972 34.396 47.856C38.104 47.686 41.792 46.652 44.472 43.972C47.166 41.278 48.186 37.604 48.356 33.896C48.472 31.336 48.5 30.518 48.5 24C48.5 17.482 48.472 16.664 48.356 14.104C48.186 10.394 47.152 6.708 44.472 4.028C41.786 1.342 38.094 0.312 34.396 0.144C31.836 0.028 31.018 0 24.5 0Z" fill="#4D4D4D"/>
<path d="M24.4998 11.6758C17.6938 11.6758 12.1758 17.1938 12.1758 23.9998C12.1758 30.8058 17.6938 36.3238 24.4998 36.3238C31.3058 36.3238 36.8238 30.8058 36.8238 23.9998C36.8238 17.1938 31.3058 11.6758 24.4998 11.6758ZM24.4998 31.9998C20.0818 31.9998 16.4998 28.4178 16.4998 23.9998C16.4998 19.5818 20.0818 15.9998 24.4998 15.9998C28.9178 15.9998 32.4998 19.5818 32.4998 23.9998C32.4998 28.4178 28.9178 31.9998 24.4998 31.9998Z" fill="#4D4D4D"/>
<path d="M37.3121 14.0681C38.9027 14.0681 40.1921 12.7787 40.1921 11.1881C40.1921 9.59753 38.9027 8.30811 37.3121 8.30811C35.7215 8.30811 34.4321 9.59753 34.4321 11.1881C34.4321 12.7787 35.7215 14.0681 37.3121 14.0681Z" fill="#4D4D4D"/>
</g>
<defs>
<clipPath id="clip0_206_223">
<rect width="48" height="48" fill="white" transform="translate(0.5)"/>
</clipPath>
</defs>
</svg>
