<svg width="143" height="30" viewBox="0 0 143 30" fill="none" xmlns="http://www.w3.org/2000/svg">
<path d="M1.56 11.76C1.56 11.36 1.48 10.76 1.32 9.96C1.16 9.13333 1.08 8.41333 1.08 7.8C1.08 7.18667 1.24 6.65333 1.56 6.2C2.68 4.57333 4.36 3.66667 6.6 3.48C8.84 3.26667 10.7867 3.81333 12.44 5.12C12.8133 5.38667 12.8533 5.77333 12.56 6.28C12.2667 6.76 11.8 7.05333 11.16 7.16C10.7067 7.21333 9.90667 7.09333 8.76 6.8C7.64 6.50667 6.77333 6.49333 6.16 6.76C5.57333 7.02667 5.22667 7.52 5.12 8.24C5.04 8.96 5.06667 9.68 5.2 10.4C5.36 11.0933 5.30667 11.7867 5.04 12.48C5.54667 12.7733 6.18667 12.9333 6.96 12.96C7.76 12.96 8.46667 12.92 9.08 12.84C9.69333 12.7333 10.2933 12.8133 10.88 13.08C11.4933 13.32 11.9467 13.8 12.24 14.52C11.8133 15.2667 11.16 15.7067 10.28 15.84C9.4 15.9733 8.49333 16.0533 7.56 16.08C6.65333 16.1067 6 16.3333 5.6 16.76C5.30667 17.08 5.10667 17.52 5 18.08C4.89333 18.64 4.84 19.1067 4.84 19.48C4.86667 19.8533 4.93333 20.48 5.04 21.36C5.14667 22.24 5.21333 22.7867 5.24 23C6.12 23.16 7.01333 23.12 7.92 22.88C8.85333 22.64 9.86667 22.28 10.96 21.8C12.08 21.2933 12.9467 20.96 13.56 20.8C13.64 20.72 13.88 20.84 14.28 21.16C14.4667 21.8 14.44 22.3733 14.2 22.88C13.96 23.3867 13.56 23.7467 13 23.96C12.52 24.12 11.8133 24.3867 10.88 24.76C9.97333 25.1333 9.24 25.4267 8.68 25.64C8.12 25.8267 7.42667 26 6.6 26.16C5.8 26.32 5.04 26.3867 4.32 26.36C4.13333 26.3333 3.81333 26.32 3.36 26.32C2.93333 26.2933 2.6 26.24 2.36 26.16C2.12 26.0533 1.97333 25.8667 1.92 25.6C1.6 24.5867 1.48 23.12 1.56 21.2C1.66667 19.2533 1.6 17.7733 1.36 16.76C1.33333 16.6267 1.21333 16.4133 1 16.12C0.813333 15.8267 0.693333 15.6 0.64 15.44C0.613333 15.28 0.666667 15.04 0.8 14.72C0.8 14.6667 0.826667 14.6133 0.88 14.56C0.96 14.48 1.04 14.4133 1.12 14.36C1.22667 14.28 1.30667 14.2133 1.36 14.16C1.44 13.9733 1.49333 13.7733 1.52 13.56C1.57333 13.32 1.6 13.12 1.6 12.96C1.6 12.8 1.58667 12.5867 1.56 12.32C1.56 12.0533 1.56 11.8667 1.56 11.76ZM19.415 9.28C19.5483 8.85333 19.8017 7.74667 20.175 5.96C20.575 4.14667 21.055 2.85333 21.615 2.08C21.8283 1.76 22.2683 1.54666 22.935 1.44C23.6283 1.33333 24.0817 1.48 24.295 1.88C24.8017 2.94667 25.2683 4.13333 25.695 5.44C26.1217 6.72 26.4417 7.85333 26.655 8.84C26.895 9.8 27.2017 11.08 27.575 12.68C27.9483 14.2533 28.2417 15.4667 28.455 16.32C28.455 16.5067 28.6283 16.6933 28.975 16.88C29.3483 17.0667 29.5883 17.24 29.695 17.4C29.9617 17.8533 29.9617 18.2133 29.695 18.48C29.2417 19.4667 29.3083 20.7733 29.895 22.4C30.4817 24.0267 30.7217 25.1867 30.615 25.88C30.535 26.44 30.095 26.8 29.295 26.96C28.5217 27.0933 27.935 26.9067 27.535 26.4C27.1617 25.8933 26.855 24.88 26.615 23.36C26.4017 21.84 25.935 20.8667 25.215 20.44C24.4683 20.0133 23.5883 19.8667 22.575 20C21.5617 20.1067 20.695 20.44 19.975 21C19.655 21.24 19.3883 21.68 19.175 22.32C18.9617 22.9333 18.8017 23.5467 18.695 24.16C18.615 24.7467 18.4417 25.32 18.175 25.88C17.935 26.44 17.6017 26.7867 17.175 26.92C16.775 27.0267 16.1483 26.92 15.295 26.6C15.135 25.8533 15.1217 25.08 15.255 24.28C15.415 23.48 15.6683 22.5733 16.015 21.56C16.3883 20.52 16.6283 19.7333 16.735 19.2C17.5617 15.44 18.455 12.1333 19.415 9.28ZM21.615 12.88C21.5617 13.2267 21.4417 13.6667 21.255 14.2C21.0683 14.7067 20.895 15.1333 20.735 15.48C20.6017 15.8 20.5217 16.1467 20.495 16.52C20.4683 16.8933 20.5883 17.12 20.855 17.2C21.3083 17.52 22.015 17.6533 22.975 17.6C23.935 17.5467 24.495 17.24 24.655 16.68C24.7617 16.28 24.815 15.8533 24.815 15.4C24.815 14.92 24.8017 14.5333 24.775 14.24C24.7483 13.92 24.6283 13.4667 24.415 12.88C24.2017 12.2933 24.055 11.92 23.975 11.76C23.9217 11.5733 23.7217 11.1333 23.375 10.44C23.055 9.72 22.8817 9.33333 22.855 9.28C22.2417 10.0267 21.8283 11.2267 21.615 12.88ZM32.4288 10.16C32.2954 9.97333 32.1088 9.76 31.8688 9.52C31.6288 9.25333 31.4421 9.04 31.3088 8.88C31.1754 8.72 31.0554 8.53333 30.9488 8.32C30.8421 8.10667 30.8021 7.90667 30.8288 7.72C30.8821 7.53333 30.9888 7.33333 31.1488 7.12C31.8154 6.29333 32.5754 5.58667 33.4288 5C34.3088 4.41333 35.2688 3.94667 36.3088 3.6C37.3754 3.25333 38.3488 2.97333 39.2288 2.76C40.1354 2.54667 41.2288 2.32 42.5088 2.08C43.7888 1.84 44.8021 1.62667 45.5488 1.44C46.0821 1.30666 46.6021 1.38667 47.1088 1.68C47.6154 1.94667 47.9621 2.30667 48.1488 2.76C48.3621 3.24 48.2554 3.69333 47.8288 4.12C47.4288 4.52 46.9621 4.78666 46.4288 4.92C45.5754 5.24 44.0954 5.54667 41.9888 5.84C39.8821 6.13333 38.3088 6.56 37.2688 7.12C36.6554 7.46667 36.4288 7.82667 36.5888 8.2C37.0954 8.94667 37.7754 9.70667 38.6288 10.48C39.4821 11.2533 40.3221 11.9067 41.1488 12.44C41.9754 12.9733 42.8288 13.6 43.7088 14.32C44.6154 15.0133 45.3354 15.68 45.8688 16.32C46.4021 16.9333 46.8154 17.7067 47.1088 18.64C47.4288 19.5467 47.4154 20.5067 47.0688 21.52C46.6954 22.88 45.9354 24.0133 44.7888 24.92C43.6688 25.8 42.3888 26.4 40.9488 26.72C39.5088 27.0133 38.0021 27.0933 36.4288 26.96C34.8821 26.8267 33.4821 26.4667 32.2288 25.88C31.1888 25.3467 30.8421 24.5333 31.1888 23.44C31.5354 22.3467 32.2421 21.56 33.3088 21.08C33.7354 21 34.1088 21.2267 34.4288 21.76C34.7754 22.2933 35.0554 22.5867 35.2688 22.64C35.4288 22.6667 35.8154 22.7067 36.4288 22.76C37.0688 22.8133 37.5621 22.92 37.9088 23.08C38.3354 23.2667 38.7888 23.36 39.2688 23.36C39.7488 23.3333 40.0954 23.2933 40.3088 23.24C40.5488 23.16 40.9888 22.9733 41.6288 22.68C42.2688 22.3867 42.6288 22.2267 42.7088 22.2C43.5621 21.5333 43.7088 20.6533 43.1488 19.56C42.1354 18.2533 40.3488 16.6933 37.7888 14.88C35.2554 13.0667 33.4688 11.4933 32.4288 10.16ZM51.925 29.44C51.4717 29.2533 51.205 28.8933 51.125 28.36C51.045 27.8267 51.0717 27.3467 51.205 26.92C51.3117 26.2267 51.7517 24.6667 52.525 22.24C53.325 19.7867 53.6583 18 53.525 16.88C53.3383 15.4667 52.525 13.2 51.085 10.08C49.6717 6.96 48.8717 4.64 48.685 3.12C48.605 2.50667 48.9783 2.01333 49.805 1.64C50.6583 1.24 51.2983 1.24 51.725 1.64C52.365 2.2 52.8717 3.12 53.245 4.4C53.6183 5.65333 53.9783 6.96 54.325 8.32C54.6983 9.65333 55.1517 10.64 55.685 11.28C56.1117 10.72 56.6583 9.26667 57.325 6.92C58.0183 4.54667 58.805 3.04 59.685 2.4C60.1117 2.08 60.5917 1.92 61.125 1.92C61.6583 1.92 62.085 2.06667 62.405 2.36C62.725 2.65333 62.7917 3.02667 62.605 3.48C60.4183 8.89333 58.8983 12.52 58.045 14.36C57.6717 15.48 57.845 16.5067 58.565 17.44C58.805 17.68 58.7517 18.2267 58.405 19.08C58.2717 19.1867 57.9383 19.3333 57.405 19.52C56.8717 19.7067 56.5383 19.9733 56.405 20.32C55.365 25.0933 54.725 27.8933 54.485 28.72C54.3783 29.04 54.085 29.2933 53.605 29.48C53.1517 29.6933 52.5917 29.68 51.925 29.44ZM71.4009 10.52C71.5609 8.44 71.8543 7 72.2809 6.2C72.3343 6.06667 72.4009 5.94667 72.4809 5.84C72.3476 5.78667 72.0943 5.72 71.7209 5.64C71.3743 5.56 71.1209 5.48 70.9609 5.4C70.5609 4.94667 70.4276 4.4 70.5609 3.76C70.7209 3.09333 71.0009 2.68 71.4009 2.52C74.4676 1.29333 77.6409 1.06667 80.9209 1.84C84.2009 2.58667 86.9343 4.21333 89.1209 6.72C89.2009 7.46667 89.1876 8.18667 89.0809 8.88C88.9743 9.54667 88.8143 10.1467 88.6009 10.68C88.4143 11.2133 88.0809 11.7467 87.6009 12.28C87.1476 12.8133 86.7343 13.2667 86.3609 13.64C85.9876 13.9867 85.4409 14.3733 84.7209 14.8C84.0009 15.2267 83.4276 15.56 83.0009 15.8C82.6009 16.04 81.9609 16.3333 81.0809 16.68C80.2276 17.0267 79.6143 17.28 79.2409 17.44C78.8676 17.5733 78.2276 17.8 77.3209 18.12C76.4143 18.44 75.8409 18.64 75.6009 18.72C75.5209 19.4133 75.6143 20.4533 75.8809 21.84C76.1476 23.2 76.2009 24.2267 76.0409 24.92C75.8009 25.6133 75.3209 26.1733 74.6009 26.6C73.8809 27.0267 73.1076 27.1333 72.2809 26.92C72.1476 26.84 71.8543 26.5333 71.4009 26C70.8676 21.84 70.8676 16.68 71.4009 10.52ZM75.8009 9.6C75.8009 9.92 75.7209 10.48 75.5609 11.28C75.4009 12.0533 75.3343 12.68 75.3609 13.16C75.4143 13.6133 75.6409 13.9067 76.0409 14.04C77.5876 14.5733 79.2943 14.24 81.1609 13.04C83.0543 11.8133 84.2276 10.3067 84.6809 8.52C83.5609 7.66667 82.6143 7 81.8409 6.52C81.0676 6.04 80.0943 5.64 78.9209 5.32C77.7476 4.97333 76.6409 4.93333 75.6009 5.2C75.5476 5.2 75.5876 5.26667 75.7209 5.4C75.8543 5.50667 76.0143 5.68 76.2009 5.92C76.3876 6.13333 76.4809 6.33333 76.4809 6.52C76.4809 6.89333 76.3609 7.41333 76.1209 8.08C75.9076 8.74667 75.8009 9.25333 75.8009 9.6ZM89.9053 14C89.9053 13.3333 90.1586 12 90.6653 10C91.172 7.97333 91.2386 6.48 90.8653 5.52C90.8386 5.44 90.7853 5.25333 90.7053 4.96C90.6253 4.64 90.572 4.4 90.5453 4.24C90.5453 4.08 90.532 3.88 90.5053 3.64C90.5053 3.4 90.5453 3.2 90.6253 3.04C90.732 2.88 90.8786 2.74667 91.0653 2.64C93.5186 1.28 96.0653 1.05333 98.7053 1.96C101.345 2.84 103.412 4.48 104.905 6.88C106.159 8.85333 104.879 11.0933 101.065 13.6C101.945 18.2933 103.225 22.2667 104.905 25.52C105.092 25.8933 104.999 26.2267 104.625 26.52C104.279 26.8133 103.852 26.9733 103.345 27C102.839 27.0267 102.399 26.92 102.025 26.68C101.039 25.8533 100.305 24.7333 99.8253 23.32C99.3453 21.9067 98.892 20.44 98.4653 18.92C98.0653 17.4 97.4653 16.2 96.6653 15.32C96.3986 15 95.892 14.8667 95.1453 14.92C94.3986 14.9467 93.932 15.1467 93.7453 15.52C93.372 16.72 93.4253 18.4667 93.9053 20.76C94.412 23.0267 94.6786 24.4267 94.7053 24.96C94.732 25.3333 94.4386 25.6533 93.8253 25.92C93.212 26.16 92.612 26.2267 92.0253 26.12C91.5453 25.96 91.1586 25.5733 90.8653 24.96C90.5453 24.1333 90.3053 23.1867 90.1453 22.12C90.012 21.0533 89.9186 20.2533 89.8653 19.72C89.8386 19.1867 89.8386 18.1467 89.8653 16.6C89.892 15.0267 89.9053 14.16 89.9053 14ZM94.5453 8.8C94.5186 8.85333 94.4386 9.05333 94.3053 9.4C94.172 9.74667 94.0786 10 94.0253 10.16C93.9986 10.32 93.9586 10.5333 93.9053 10.8C93.8786 11.0667 93.892 11.2667 93.9453 11.4C94.0253 11.5333 94.1586 11.6267 94.3453 11.68C95.492 11.9467 96.6786 11.92 97.9053 11.6C99.132 11.28 100.185 10.7333 101.065 9.96C101.359 9.82667 101.599 9.62667 101.785 9.36C101.999 9.09333 102.012 8.84 101.825 8.6C100.865 6.6 98.9453 5.44 96.0653 5.12C95.612 5.06667 95.292 5.25333 95.1053 5.68C94.9186 6.08 94.7853 6.65333 94.7053 7.4C94.652 8.12 94.5986 8.58667 94.5453 8.8ZM106.512 20.08C106.512 19.3867 106.498 18.2667 106.472 16.72C106.445 15.1467 106.432 13.9067 106.432 13C106.432 12.0933 106.472 10.9733 106.552 9.64C106.632 8.30667 106.765 7.06667 106.952 5.92C107.112 4.85333 107.632 4.17333 108.512 3.88C109.392 3.56 110.325 3.73333 111.312 4.4C111.765 4.85333 111.912 5.24 111.752 5.56C111.085 7.45333 110.698 9.46667 110.592 11.6C110.485 13.7333 110.512 16.16 110.672 18.88C110.858 21.5733 110.925 23.5867 110.872 24.92C110.845 25.2133 110.538 25.4133 109.952 25.52C109.365 25.6267 108.805 25.5467 108.272 25.28C108.058 25.1733 107.858 25.0533 107.672 24.92C107.512 24.7867 107.365 24.6267 107.232 24.44C107.125 24.2533 107.018 24.0933 106.912 23.96C106.832 23.8 106.765 23.6 106.712 23.36C106.658 23.0933 106.618 22.8933 106.592 22.76C106.565 22.6 106.538 22.36 106.512 22.04C106.512 21.72 106.512 21.5067 106.512 21.4C106.512 21.2933 106.512 21.0667 106.512 20.72C106.512 20.3733 106.512 20.16 106.512 20.08ZM113.037 24.44C112.824 24.2 112.717 23.92 112.717 23.6C112.877 22.3467 113.024 19.8667 113.157 16.16C113.317 12.4533 113.61 9.57333 114.037 7.52C114.117 7.14667 114.504 6.96 115.197 6.96C115.89 6.96 116.37 7.09333 116.637 7.36C117.464 8.45333 118.317 10.2933 119.197 12.88C120.077 15.44 120.93 17.2667 121.757 18.36C121.944 17.8533 122.064 17.36 122.117 16.88C122.17 16.3733 122.17 15.72 122.117 14.92C122.09 14.12 122.077 13.6267 122.077 13.44C122.077 12.5867 121.837 11.1067 121.357 9C120.877 6.86667 120.73 5.22667 120.917 4.08C120.997 3.52 121.464 3.2 122.317 3.12C123.17 3.04 123.69 3.25333 123.877 3.76C124.33 4.96 124.677 6.33333 124.917 7.88C125.157 9.42667 125.29 10.7067 125.317 11.72C125.344 12.7067 125.357 14.1333 125.357 16C125.357 16.4 125.357 16.6933 125.357 16.88C125.357 19.6267 124.81 21.5467 123.717 22.64C123.37 23.04 122.877 23.2667 122.237 23.32C121.597 23.3467 121.104 23.1733 120.757 22.8C120.384 22.3733 120.01 21.8667 119.637 21.28C119.264 20.6933 118.957 20.1867 118.717 19.76C118.504 19.3333 118.197 18.7467 117.797 18C117.424 17.2267 117.157 16.6933 116.997 16.4C116.65 17.3333 116.504 18.6533 116.557 20.36C116.61 22.04 116.53 23.3467 116.317 24.28C116.184 24.7867 115.73 25.08 114.957 25.16C114.184 25.2133 113.544 24.9733 113.037 24.44ZM132.512 26.92C132.085 27.08 131.725 27.0133 131.432 26.72C131.138 26.4267 130.978 26.1067 130.952 25.76C130.818 23.36 130.978 19.9333 131.432 15.48C131.885 11 132.112 7.8 132.112 5.88C132.112 5.69333 132.058 5.56 131.952 5.48C131.872 5.4 131.738 5.37333 131.552 5.4C131.392 5.42667 131.245 5.46667 131.112 5.52C130.978 5.57333 130.805 5.64 130.592 5.72C130.378 5.8 130.232 5.85333 130.152 5.88C129.992 5.90667 129.445 6.13333 128.512 6.56C127.605 6.96 126.925 7.05333 126.472 6.84C125.805 6.54667 125.498 6.04 125.552 5.32C125.605 4.6 125.978 4.06667 126.672 3.72C128.112 3 129.458 2.46667 130.712 2.12C131.992 1.77333 133.152 1.58666 134.192 1.56C135.258 1.53333 136.445 1.52 137.752 1.52C139.085 1.52 140.512 1.49333 142.032 1.44C142.085 1.44 142.138 1.49333 142.192 1.6C142.272 1.68 142.352 1.78667 142.432 1.92C142.512 2.05333 142.565 2.14667 142.592 2.2C142.778 2.76 142.698 3.28 142.352 3.76C142.005 4.21333 141.512 4.54667 140.872 4.76C139.805 4.97333 139.058 5.08 138.632 5.08C138.205 5.08 137.525 5.09333 136.592 5.12C135.632 9.81333 135.045 16.4267 134.832 24.96C134.832 25.6267 134.058 26.28 132.512 26.92Z" fill="black"/>
</svg>
