<svg width="64" height="64" viewBox="0 0 64 64" fill="none" xmlns="http://www.w3.org/2000/svg">
<path d="M56.0002 33.1306V29.3333C56.0002 22.9681 53.4716 16.8636 48.9708 12.3627C44.4699 7.86182 38.3654 5.33325 32.0002 5.33325C25.635 5.33325 19.5305 7.86182 15.0296 12.3627C10.5288 16.8636 8.00019 22.9681 8.00019 29.3333V33.1306C5.20328 34.3621 2.91433 36.5171 1.51652 39.2348C0.118708 41.9524 -0.30311 45.0677 0.321681 48.0592C0.946472 51.0507 2.57995 53.7368 4.94865 55.6678C7.31735 57.5988 10.2775 58.6575 13.3335 58.6666C14.748 58.6666 16.1046 58.1047 17.1048 57.1045C18.105 56.1043 18.6669 54.7477 18.6669 53.3333V37.3333C18.6669 35.9188 18.105 34.5622 17.1048 33.562C16.1046 32.5618 14.748 31.9999 13.3335 31.9999V29.3333C13.3335 24.3825 15.3002 19.6346 18.8009 16.1339C22.3015 12.6332 27.0495 10.6666 32.0002 10.6666C36.9509 10.6666 41.6988 12.6332 45.1995 16.1339C48.7002 19.6346 50.6669 24.3825 50.6669 29.3333V31.9999C49.2524 31.9999 47.8958 32.5618 46.8956 33.562C45.8954 34.5622 45.3335 35.9188 45.3335 37.3333V53.3333H37.3335C36.6263 53.3333 35.948 53.6142 35.4479 54.1143C34.9478 54.6144 34.6669 55.2927 34.6669 55.9999C34.6669 56.7072 34.9478 57.3854 35.4479 57.8855C35.948 58.3856 36.6263 58.6666 37.3335 58.6666H50.6669C53.7229 58.6575 56.683 57.5988 59.0517 55.6678C61.4204 53.7368 63.0539 51.0507 63.6787 48.0592C64.3035 45.0677 63.8817 41.9524 62.4839 39.2348C61.0861 36.5171 58.7971 34.3621 56.0002 33.1306ZM13.3335 53.3333C11.2118 53.3333 9.17696 52.4904 7.67667 50.9901C6.17638 49.4898 5.33353 47.455 5.33353 45.3333C5.33353 43.2115 6.17638 41.1767 7.67667 39.6764C9.17696 38.1761 11.2118 37.3333 13.3335 37.3333V53.3333ZM50.6669 53.3333V37.3333C52.7886 37.3333 54.8234 38.1761 56.3237 39.6764C57.824 41.1767 58.6669 43.2115 58.6669 45.3333C58.6669 47.455 57.824 49.4898 56.3237 50.9901C54.8234 52.4904 52.7886 53.3333 50.6669 53.3333Z" fill="#22A7C1"/>
</svg>
