<svg width="49" height="48" viewBox="0 0 49 48" fill="none" xmlns="http://www.w3.org/2000/svg">
<g clip-path="url(#clip0_206_220)">
<path fill-rule="evenodd" clip-rule="evenodd" d="M24.5 0C11.246 0 0.5 10.746 0.5 24C0.5 37.254 11.246 48 24.5 48C37.754 48 48.5 37.254 48.5 24C48.5 10.746 37.754 0 24.5 0ZM35.624 16.322C35.264 20.116 33.7 29.326 32.906 33.576C32.57 35.376 31.906 35.978 31.266 36.036C29.872 36.164 28.814 35.114 27.464 34.23C25.352 32.846 24.158 31.984 22.108 30.632C19.738 29.07 21.274 28.212 22.624 26.81C22.978 26.442 29.118 20.856 29.238 20.35C29.252 20.286 29.268 20.05 29.126 19.926C28.984 19.802 28.778 19.844 28.63 19.878C28.418 19.926 25.044 22.156 18.506 26.568C17.548 27.226 16.68 27.546 15.902 27.53C15.046 27.512 13.398 27.046 12.172 26.646C10.67 26.158 9.474 25.898 9.578 25.07C9.632 24.638 10.226 24.196 11.362 23.744C18.358 20.696 23.024 18.686 25.358 17.714C32.024 14.942 33.408 14.46 34.312 14.444C35.444 14.428 35.716 15.362 35.624 16.322Z" fill="#4D4D4D"/>
</g>
<defs>
<clipPath id="clip0_206_220">
<rect width="48" height="48" fill="white" transform="translate(0.5)"/>
</clipPath>
</defs>
</svg>
