<svg width="64" height="64" viewBox="0 0 64 64" fill="none" xmlns="http://www.w3.org/2000/svg">
<path d="M50.6667 13.3334H45.128C44.232 8.25875 40.4533 4.06941 35.3307 2.75208C33.92 2.38675 32.4533 3.24541 32.0827 4.66941C31.7147 6.09608 32.576 7.54941 34.0027 7.91475C37.5333 8.82408 40 12.0107 40 15.6641V45.3334H10.6667C7.72533 45.3334 5.33333 42.9414 5.33333 40.0001V29.3334H12C13.4747 29.3334 14.6667 28.1387 14.6667 26.6667C14.6667 25.1947 13.4747 24.0001 12 24.0001H5.33333C2.392 24.0001 0 26.3921 0 29.3334V40.0001C0 45.0134 3.47733 49.2294 8.14667 50.3654C8.05067 50.9014 8 51.4481 8 52.0001C8 57.1468 12.1867 61.3334 17.3333 61.3334C22.48 61.3334 26.6667 57.1468 26.6667 52.0001C26.6667 51.5494 26.632 51.1068 26.568 50.6667H37.432C37.368 51.1068 37.3333 51.5494 37.3333 52.0001C37.3333 57.1468 41.52 61.3334 46.6667 61.3334C51.8133 61.3334 56 57.1468 56 52.0001C56 51.4481 55.9493 50.9014 55.8533 50.3654C60.5227 49.2294 64 45.0134 64 40.0001V26.6667C64 19.3147 58.0187 13.3334 50.6667 13.3334ZM58.6667 26.6667V29.3334H45.3333V18.6667H50.6667C55.0773 18.6667 58.6667 22.2561 58.6667 26.6667ZM21.3333 52.0001C21.3333 54.2054 19.5387 56.0001 17.3333 56.0001C15.128 56.0001 13.3333 54.2054 13.3333 52.0001C13.3333 51.4961 13.432 51.0508 13.576 50.6667H21.0933C21.2373 51.0508 21.336 51.4961 21.336 52.0001H21.3333ZM46.6667 56.0001C44.4613 56.0001 42.6667 54.2054 42.6667 52.0001C42.6667 51.4961 42.7653 51.0508 42.9093 50.6667H50.4267C50.5707 51.0508 50.6693 51.4961 50.6693 52.0001C50.6693 54.2054 48.872 56.0001 46.6667 56.0001ZM53.3333 45.3334H45.3333V34.6667H58.6667V40.0001C58.6667 42.9414 56.2747 45.3334 53.3333 45.3334ZM0 5.33341C0 3.86141 1.192 2.66675 2.66667 2.66675H24.4107C25.8853 2.66675 27.0773 3.86141 27.0773 5.33341C27.0773 6.80541 25.8853 8.00008 24.4107 8.00008H2.66667C1.192 8.00008 0 6.80541 0 5.33341ZM0 16.0001C0 14.5281 1.192 13.3334 2.66667 13.3334H19.0773C20.552 13.3334 21.744 14.5281 21.744 16.0001C21.744 17.4721 20.552 18.6667 19.0773 18.6667H2.66667C1.192 18.6667 0 17.4721 0 16.0001Z" fill="#22A7C1"/>
</svg>
