<svg width="48" height="48" viewBox="0 0 48 48" fill="none" xmlns="http://www.w3.org/2000/svg">
<rect width="48" height="48" rx="24" fill="#4DAD1F"/>
<g clip-path="url(#clip0_206_235)">
<path d="M31.5 34H29.8333V29.7975C29.8327 29.1441 29.5728 28.5177 29.1109 28.0558C28.6489 27.5938 28.0225 27.334 27.3692 27.3333H20.6308C19.9775 27.334 19.3511 27.5938 18.8891 28.0558C18.4272 28.5177 18.1673 29.1441 18.1667 29.7975V34H16.5V29.7975C16.5013 28.7023 16.937 27.6524 17.7114 26.878C18.4857 26.1036 19.5357 25.6679 20.6308 25.6666H27.3692C28.4643 25.6679 29.5143 26.1036 30.2886 26.878C31.063 27.6524 31.4987 28.7023 31.5 29.7975V34Z" fill="white"/>
<path d="M24 24C23.0111 24 22.0444 23.7068 21.2222 23.1573C20.3999 22.6079 19.759 21.827 19.3806 20.9134C19.0022 19.9998 18.9031 18.9945 19.0961 18.0246C19.289 17.0546 19.7652 16.1637 20.4645 15.4645C21.1637 14.7652 22.0546 14.289 23.0246 14.0961C23.9945 13.9031 24.9998 14.0022 25.9134 14.3806C26.827 14.759 27.6079 15.3999 28.1573 16.2222C28.7068 17.0444 29 18.0111 29 19C28.9987 20.3257 28.4715 21.5967 27.5341 22.5341C26.5967 23.4715 25.3257 23.9987 24 24ZM24 15.6667C23.3407 15.6667 22.6963 15.8622 22.1481 16.2284C21.5999 16.5947 21.1727 17.1153 20.9204 17.7244C20.6681 18.3335 20.6021 19.0037 20.7307 19.6503C20.8593 20.2969 21.1768 20.8909 21.643 21.357C22.1092 21.8232 22.7031 22.1407 23.3497 22.2693C23.9963 22.3979 24.6665 22.3319 25.2756 22.0796C25.8847 21.8273 26.4053 21.4001 26.7716 20.8519C27.1378 20.3037 27.3333 19.6593 27.3333 19C27.3333 18.1159 26.9821 17.2681 26.357 16.643C25.7319 16.0179 24.8841 15.6667 24 15.6667Z" fill="white"/>
</g>
<defs>
<clipPath id="clip0_206_235">
<rect width="20" height="20" fill="white" transform="translate(14 14)"/>
</clipPath>
</defs>
</svg>
