<svg width="180" height="180" viewBox="0 0 180 180" fill="none" xmlns="http://www.w3.org/2000/svg">
<path fill-rule="evenodd" clip-rule="evenodd" d="M90 15C48.6 15 15 48.6 15 90C15 131.4 48.6 165 90 165C131.4 165 165 131.4 165 90C165 48.6 131.4 15 90 15ZM90 37.5C102.45 37.5 112.5 47.55 112.5 60C112.5 72.45 102.45 82.5 90 82.5C77.55 82.5 67.5 72.45 67.5 60C67.5 47.55 77.55 37.5 90 37.5ZM90 144C71.25 144 54.675 134.4 45 119.85C45.225 104.925 75 96.75 90 96.75C104.925 96.75 134.775 104.925 135 119.85C125.325 134.4 108.75 144 90 144Z" fill="#E6E6E6"/>
</svg>
