<svg width="174" height="200" viewBox="0 0 174 200" fill="none" xmlns="http://www.w3.org/2000/svg">
<path d="M173.22 86.2205C173.22 107.299 165.708 126.472 153.151 141.496C137.342 160.444 113.572 172.441 86.8877 172.441C61.3243 172.441 38.4517 161.341 22.6428 143.738C9.0762 128.49 0.779297 108.308 0.779297 86.2205C0.779297 38.5694 39.3487 0 86.9998 0C134.651 0 173.22 38.5694 173.22 86.2205Z" fill="#F8F8F8"/>
<path d="M153.264 141.496C137.455 160.444 113.685 172.441 87.0008 172.441C61.4374 172.441 38.5648 161.341 22.7559 143.738C25.4467 141.608 28.8104 139.702 32.9588 138.02L36.0982 136.787C42.0406 134.432 49.7769 131.517 60.204 127.144C62.5586 126.135 64.4646 124.341 65.4737 121.987C66.0343 120.754 66.3707 119.296 66.3707 117.838V98.4416C66.0343 97.9931 65.6979 97.6567 65.4737 97.2082C63.7919 94.7416 62.6707 91.8265 62.3343 88.6871L60.6525 87.9023C55.6071 89.1356 55.9435 83.7538 54.7101 73.4387C54.1495 69.1782 54.8223 68.2812 56.7283 67.6085L58.298 65.4782C48.6557 43.6147 53.4768 29.9361 63.007 25.1149C59.8677 18.1634 59.6434 15.6968 59.6434 15.6968C59.6434 15.6968 79.9372 19.0604 87.0008 17.7149C95.8583 15.921 109.537 18.0513 114.582 29.8239C122.991 33.1875 126.355 38.4572 127.028 44.2875C128.261 53.4813 122.991 63.5722 121.982 67.4964C122.094 67.7206 122.207 67.8327 122.207 67.9448C123.552 68.6176 124 69.7388 123.552 73.4387C122.319 83.1932 122.655 89.2477 117.61 87.9023L113.125 95.7507C112.901 96.6477 112.901 96.984 112.788 97.6567C112.564 99.1143 112.676 102.029 112.676 118.063C112.676 119.969 113.237 121.763 114.246 123.444C115.367 125.126 116.937 126.584 118.955 127.369C118.955 127.369 119.067 127.369 119.179 127.481C130.728 132.302 139.025 135.441 145.079 137.796C148.218 138.805 150.909 140.15 153.264 141.496Z" fill="#E7C593"/>
<path d="M114.469 123.22V127.032H65.4727V122.099C66.0333 120.866 66.3696 119.408 66.3696 117.95V98.4414C66.0333 97.993 65.6969 97.6566 65.4727 97.2081V96.0869C66.4817 97.8808 67.8272 99.5626 69.509 100.908L84.8695 111.56C88.4573 114.587 93.6149 114.699 97.3148 111.784L111.666 98.8899C112.115 98.4414 112.675 97.993 113.124 97.5445C112.9 99.002 113.012 101.917 113.012 117.95C112.9 119.856 113.46 121.762 114.469 123.22Z" fill="url(#paint0_linear_534_7551)"/>
<mask id="mask0_534_7551" style="mask-type:alpha" maskUnits="userSpaceOnUse" x="22" y="15" width="132" height="158">
<path d="M153.264 141.496C137.455 160.444 113.685 172.441 87.0008 172.441C61.4374 172.441 38.5648 161.341 22.7559 143.738C25.4467 141.608 28.8104 139.702 32.9588 138.02L36.0982 136.787C42.0406 134.432 49.7769 131.517 60.204 127.144C62.5586 126.135 64.4646 124.341 65.4737 121.987C66.0343 120.754 66.3707 119.296 66.3707 117.838V98.4416C66.0343 97.9931 65.6979 97.6567 65.4737 97.2082C63.7919 94.7416 62.6707 91.8265 62.3343 88.6871L60.6525 87.9023C55.6071 89.1356 55.9435 83.7538 54.7101 73.4387C54.1495 69.1782 54.8223 68.2812 56.7283 67.6085L58.298 65.4782C48.6557 43.6147 53.4768 29.9361 63.007 25.1149C59.8677 18.1634 59.6434 15.6968 59.6434 15.6968C59.6434 15.6968 79.9372 19.0604 87.0008 17.7149C95.8583 15.921 109.537 18.0513 114.582 29.8239C122.991 33.1875 126.355 38.4572 127.028 44.2875C128.261 53.4813 122.991 63.5722 121.982 67.4964C122.094 67.7206 122.207 67.8327 122.207 67.9448C123.552 68.6176 124 69.7388 123.552 73.4387C122.319 83.1932 122.655 89.2477 117.61 87.9023L113.125 95.7507C112.901 96.6477 112.901 96.984 112.788 97.6567C112.564 99.1143 112.676 102.029 112.676 118.063C112.676 119.969 113.237 121.763 114.246 123.444C115.367 125.126 116.937 126.584 118.955 127.369C118.955 127.369 119.067 127.369 119.179 127.481C130.728 132.302 139.025 135.441 145.079 137.796C148.218 138.805 150.909 140.15 153.264 141.496Z" fill="#EFEC93"/>
</mask>
<g mask="url(#mask0_534_7551)">
<path d="M22.7793 122H55.2793L73.5293 124.128L82.6543 125.66C87.3506 126.669 92.208 126.669 96.9043 125.66L106.029 124.128L120.279 122H152.779V172H22.7793V122Z" fill="#75929B"/>
</g>
<path d="M122.206 67.3842C122.655 64.9176 121.534 61.8903 120.637 59.7601C120.524 59.4237 120.3 59.0873 120.188 58.6389C116.264 50.7904 107.631 47.6511 99.3337 47.2026C78.143 46.0814 76.2369 50.1177 69.6218 44.0632C71.64 47.2026 71.8642 52.0238 68.7249 58.0783C66.4825 62.3388 62.2219 64.2449 58.5219 65.4782C48.8796 43.6147 53.7008 29.9361 63.231 25.1149C60.0916 18.1634 59.8674 15.6968 59.8674 15.6968C59.8674 15.6968 80.1612 19.0604 87.1126 17.7149C95.9701 15.921 109.649 18.0513 114.694 29.8239C123.103 33.1875 126.355 38.4572 127.14 44.2875C128.373 53.3692 123.215 63.3479 122.206 67.3842Z" fill="#17262B"/>
<path d="M121.281 174.564C120.63 177.33 119.654 180.259 118.515 182.699C115.423 188.72 110.542 193.438 104.522 196.53C98.3389 199.621 91.017 200.923 83.6952 199.296C66.4481 195.716 55.384 178.794 58.9636 161.547C62.5432 144.3 79.3021 133.074 96.5491 136.816C102.732 138.118 108.101 141.209 112.657 145.439C120.304 153.087 123.559 164.151 121.281 174.564Z" fill="url(#paint1_linear_534_7551)"/>
<path d="M100.291 165.29H92.9695V157.968C92.9695 156.503 91.8306 155.202 90.2035 155.202C88.7391 155.202 87.4375 156.341 87.4375 157.968V165.29H80.1156C78.6513 165.29 77.3496 166.428 77.3496 168.056C77.3496 169.683 78.4886 170.822 80.1156 170.822H87.4375V178.143C87.4375 179.608 88.5764 180.909 90.2035 180.909C91.6679 180.909 92.9695 179.771 92.9695 178.143V170.822H100.291C101.756 170.822 103.057 169.683 103.057 168.056C103.057 166.428 101.756 165.29 100.291 165.29Z" fill="white"/>
<defs>
<linearGradient id="paint0_linear_534_7551" x1="89.9858" y1="127.22" x2="89.9858" y2="110.173" gradientUnits="userSpaceOnUse">
<stop stop-color="#E7C593"/>
<stop offset="1" stop-color="#DDB272"/>
</linearGradient>
<linearGradient id="paint1_linear_534_7551" x1="58.2618" y1="168.055" x2="122.006" y2="168.055" gradientUnits="userSpaceOnUse">
<stop stop-color="#B0BACC"/>
<stop offset="1" stop-color="#969EAE"/>
</linearGradient>
</defs>
</svg>
