<svg width="235" height="201" viewBox="0 0 235 201" fill="none" xmlns="http://www.w3.org/2000/svg">
<path d="M81.1348 60.0144V43.3116C81.1348 26.6088 94.4572 12.8887 111.359 12.8887C127.863 12.8887 141.583 26.41 141.583 43.3116V60.0144" stroke="#75929B" stroke-width="1.8941" stroke-miterlimit="10" stroke-linecap="round" stroke-linejoin="round"/>
<path d="M20.4883 200H233.847" stroke="#B1B9CC" stroke-width="2" stroke-miterlimit="10" stroke-linecap="round" stroke-linejoin="round"/>
<path d="M1 200H9.74909" stroke="#B1B9CC" stroke-width="2" stroke-miterlimit="10" stroke-linecap="round" stroke-linejoin="round"/>
<path d="M199.643 28.3994H30.2285V198.211H199.643V28.3994Z" fill="#FEF4EE"/>
<path d="M200.043 28.3994H77.3574V198.211H199.845V28.3994H200.043Z" fill="#FCEADD"/>
<path d="M53.692 28.3994H30.2285V198.211H53.692V28.3994Z" fill="#FCEADD"/>
<path d="M77.3543 198.211H30.2285V197.813L54.0897 174.151L77.3543 198.211Z" fill="#FCEADD"/>
<path d="M112.647 60.0147C112.647 63.1189 110.087 65.6788 106.982 65.6788C103.878 65.6788 101.318 63.1189 101.318 60.0147C101.318 56.9105 103.878 54.3506 106.982 54.3506C110.087 54.3506 112.647 56.9105 112.647 60.0147Z" fill="#9EC0CB" stroke="#75929B"/>
<path d="M173.096 60.0147C173.096 63.1189 170.536 65.6788 167.432 65.6788C164.357 65.6788 161.96 63.1472 161.768 60.0001C161.776 56.9025 164.332 54.3506 167.432 54.3506C170.536 54.3506 173.096 56.9105 173.096 60.0147Z" fill="#9EC0CB" stroke="#75929B"/>
<path d="M106.984 60.0144V43.3116C106.984 26.6088 120.307 12.8887 137.209 12.8887C153.712 12.8887 167.433 26.41 167.433 43.3116V60.0144" stroke="#75929B" stroke-width="1.8941" stroke-miterlimit="10" stroke-linecap="round" stroke-linejoin="round"/>
<path d="M186.708 6.04744C191.002 3.29486 196.066 1.75342 201.462 1.75342C216.215 1.75342 228.217 13.6446 228.217 28.3984C228.217 43.1522 216.215 55.0434 201.462 55.0434C186.708 55.0434 174.706 43.1522 174.706 28.3984C174.486 19.0396 179.331 10.892 186.708 6.04744Z" fill="#E6E6E6"/>
<path d="M201.46 40.3294C196.086 40.3294 191.518 35.5036 191.518 28.2648C191.518 21.026 196.086 16.4683 201.46 16.4683C206.834 16.4683 211.402 21.026 211.402 28.2648C211.402 35.5036 206.834 40.3294 201.46 40.3294ZM201.46 34.6993C203.341 34.6993 205.222 32.8225 205.222 28.2648C205.49 23.9751 203.341 21.8303 201.46 21.8303C199.579 21.8303 197.698 23.9751 197.698 28.2648C197.698 32.8225 199.579 34.6993 201.46 34.6993Z" fill="white"/>
<path d="M118.07 114.498C111.239 114.498 105.501 110.127 103.316 103.845C102.769 102.48 103.589 101.114 104.955 100.568C106.321 100.021 107.687 100.841 108.234 102.206C109.6 106.303 113.698 109.308 118.07 109.308C122.441 109.308 126.539 106.577 127.905 102.206C128.452 100.841 129.818 100.021 131.184 100.568C132.55 101.114 133.37 102.48 132.823 103.845C130.638 110.4 124.9 114.498 118.07 114.498Z" fill="#B3B3B3"/>
<path d="M159.325 114.498C152.495 114.498 146.757 110.127 144.572 103.845C144.025 102.48 144.845 101.114 146.211 100.568C147.577 100.021 148.943 100.841 149.489 102.206C150.856 106.303 154.954 109.308 159.325 109.308C163.697 109.308 167.795 106.577 169.161 102.206C169.708 100.841 171.074 100.021 172.44 100.568C173.806 101.114 174.626 102.48 174.079 103.845C171.893 110.4 166.156 114.498 159.325 114.498Z" fill="#B3B3B3"/>
<path d="M138.835 147.94C142.305 147.94 145.119 145.127 145.119 141.658C145.119 138.188 142.305 135.375 138.835 135.375C135.364 135.375 132.551 138.188 132.551 141.658C132.551 145.127 135.364 147.94 138.835 147.94Z" fill="#B3B3B3"/>
<path d="M24.3861 9.24554V0H60.1184V9.24554L35.7364 38.6632H60.5388V47.9087H23.125V38.6632L47.507 9.24554H24.3861Z" fill="#75929B"/>
<path d="M53.8154 78.5876V72.7041H76.9363V78.5876L61.3822 97.499H77.3567V103.382H52.9746V97.499L68.5287 78.5876H53.8154Z" fill="#75929B"/>
</svg>
