<svg width="352" height="301" viewBox="0 0 352 301" fill="none" xmlns="http://www.w3.org/2000/svg">
<path d="M121.453 90.0222V64.968C121.453 39.9138 141.479 19.3335 166.884 19.3335C191.692 19.3335 212.316 39.6155 212.316 64.968V90.0222" stroke="#9A7344" stroke-width="1.8941" stroke-miterlimit="10" stroke-linecap="round" stroke-linejoin="round"/>
<path d="M30.291 300H351" stroke="#B1B9CC" stroke-width="2" stroke-miterlimit="10" stroke-linecap="round" stroke-linejoin="round"/>
<path d="M1 300H14.1511" stroke="#B1B9CC" stroke-width="2" stroke-miterlimit="10" stroke-linecap="round" stroke-linejoin="round"/>
<path d="M299.592 42.5981H44.9375V297.316H299.592V42.5981Z" fill="#F7EABD"/>
<path d="M300.188 42.5981H115.773V297.316H299.89V42.5981H300.188Z" fill="#F1DF9D"/>
<path d="M80.2065 42.5981H44.9375V297.316H80.2065V42.5981Z" fill="#DAC18F"/>
<path d="M115.774 297.316H44.9375V296.719L80.8043 261.226L115.774 297.316Z" fill="#F4D79F"/>
<path d="M160.309 99.2678C165.39 99.2678 169.574 95.0921 169.574 90.0216C169.574 84.9511 165.39 80.7754 160.309 80.7754C155.227 80.7754 151.043 84.9511 151.043 90.0216C151.043 95.0921 155.227 99.2678 160.309 99.2678Z" fill="#9A7344"/>
<path d="M251.172 99.2678C256.253 99.2678 260.437 95.0921 260.437 90.0216C260.437 84.9511 256.253 80.7754 251.172 80.7754C246.091 80.7754 241.906 84.9511 241.906 90.0216C242.205 95.0921 246.091 99.2678 251.172 99.2678Z" fill="#9A7344"/>
<path d="M160.309 90.0222V64.968C160.309 39.9138 180.334 19.3335 205.74 19.3335C230.548 19.3335 251.171 39.6155 251.171 64.968V90.0222" stroke="#9A7344" stroke-width="1.8941" stroke-miterlimit="10" stroke-linecap="round" stroke-linejoin="round"/>
<path d="M280.144 9.0719C286.599 4.94303 294.212 2.63086 302.321 2.63086C324.498 2.63086 342.538 20.4676 342.538 42.5984C342.538 64.7291 324.498 82.5659 302.321 82.5659C280.144 82.5659 262.105 64.7291 262.105 42.5984C261.774 28.5602 269.056 16.3387 280.144 9.0719Z" fill="url(#paint0_linear_288_622)"/>
<path d="M302.318 60.4939C294.239 60.4939 287.373 53.2551 287.373 42.397C287.373 31.5388 294.239 24.7021 302.318 24.7021C310.396 24.7021 317.262 31.5388 317.262 42.397C317.262 53.2551 310.396 60.4939 302.318 60.4939ZM302.318 52.0487C305.145 52.0487 307.972 49.2336 307.972 42.397C308.376 35.9625 305.145 32.7452 302.318 32.7452C299.49 32.7452 296.663 35.9625 296.663 42.397C296.663 49.2336 299.49 52.0487 302.318 52.0487Z" fill="white"/>
<path d="M176.974 171.745C166.706 171.745 158.082 165.19 154.796 155.767C153.975 153.718 155.207 151.67 157.26 150.85C159.314 150.031 161.367 151.26 162.189 153.309C164.242 159.454 170.402 163.961 176.974 163.961C183.545 163.961 189.705 159.864 191.758 153.309C192.58 151.26 194.633 150.031 196.687 150.85C198.74 151.67 199.972 153.718 199.151 155.767C195.865 165.6 187.241 171.745 176.974 171.745Z" fill="#9A7344"/>
<path d="M238.989 171.745C228.722 171.745 220.097 165.19 216.812 155.767C215.991 153.718 217.223 151.67 219.276 150.85C221.33 150.031 223.383 151.26 224.204 153.309C226.258 159.454 232.418 163.961 238.989 163.961C245.56 163.961 251.72 159.864 253.774 153.309C254.595 151.26 256.649 150.031 258.702 150.85C260.756 151.67 261.988 153.718 261.166 155.767C257.881 165.6 249.256 171.745 238.989 171.745Z" fill="#9A7344"/>
<path d="M208.186 221.91C213.403 221.91 217.632 217.691 217.632 212.487C217.632 207.282 213.403 203.063 208.186 203.063C202.969 203.063 198.74 207.282 198.74 212.487C198.74 217.691 202.969 221.91 208.186 221.91Z" fill="#9A7344"/>
<path d="M36.1554 13.8683V0H89.8663V13.8683L53.2165 57.9948H90.4982V71.8631H34.2598V57.9948L70.9095 13.8683H36.1554Z" fill="#666666"/>
<path d="M77.3888 114.88V106.055H112.143V114.88L88.7629 143.248H112.775V152.073H76.125V143.248L99.505 114.88H77.3888Z" fill="#666666"/>
<defs>
<linearGradient id="paint0_linear_288_622" x1="302.322" y1="5.40771" x2="302.322" y2="50.2744" gradientUnits="userSpaceOnUse">
<stop stop-color="#B0BACC"/>
<stop offset="1" stop-color="#969EAE"/>
</linearGradient>
</defs>
</svg>
